/* XPM */
static char * clock28_xpm[] = {
"28 28 54 1",
" 	g None",
".	g #A3A3A3",
"+	g #B8B8B8",
"@	g #B3B3B3",
"#	g #C7C7C7",
"$	g #000000",
"%	g #7F7F7F",
"&	g #A2A2A2",
"*	g #8F8F8F",
"=	g #BBBBBB",
"-	g #9B9B9B",
";	g #C9C9C9",
">	g #969696",
",	g #010101",
"'	g #020202",
")	g #FFFFFF",
"!	g #888888",
"~	g #D8D8D8",
"{	g #AAAAAA",
"]	g #030303",
"^	g #A8A8A8",
"/	g #E1E1E1",
"(	g #6B6B6B",
"_	g #BEBEBE",
":	g #ACACAC",
"<	g #BDBDBD",
"[	g #979797",
"}	g #BFBFBF",
"|	g #A4A4A4",
"1	g #B4B4B4",
"2	g #C3C3C3",
"3	g #949494",
"4	g #8C8C8C",
"5	g #D5D5D5",
"6	g #DFDFDF",
"7	g #B0B0B0",
"8	g #B9B9B9",
"9	g #B7B7B7",
"0	g #A5A5A5",
"a	g #B5B5B5",
"b	g #5E5E5E",
"c	g #D1D1D1",
"d	g #D2D2D2",
"e	g #B2B2B2",
"f	g #DDDDDD",
"g	g #C1C1C1",
"h	g #D9D9D9",
"i	g #DADADA",
"j	g #ECECEC",
"k	g #0C0C0C",
"l	g #656565",
"m	g #CFCFCF",
"n	g #CACACA",
"o	g #CECECE",
".+@#$$%$&*=+-;>$$$$$$,$$$'$$",
")))))$)$))))))!~{$$$$$]$$$$$",
")))))$)$))))))$$^/($$$$$'$$$",
")))))$$$$))))$$$$_:<$]$$$,$$",
")))))))))))))$$$$))[=$$$$'$$",
"))))))))))))$$$$))))}|$$$$,$",
"))))))))))))$))$)))))12$$$$,",
"))))))))))))$)))))))))34$$]$",
")))))))))))$)))))))))))5$$'$",
"))))))))))$$))))))))6$$78$$$",
"))))))))))$)))))))))$$)$9$$$",
"))))))))))$))))))))))$$)70$$",
")))))))))$$))))))))))))))1$$",
")))))))))$)))$$$$$)))))))ab$",
"))))))))$$))$$$$$))))))))1*$",
"))))))))$))$$$$$$)))))))))c$",
"))))))))$)$$$$$)))))))))d)e$",
")))))))$$$$)))))))))))$$$$f$",
"))))))]$$)))))))))))))))))a$",
")))))$$$$)))))))))))))$$$$g$",
")))))$$$$$$$))))))))))))))h$",
")))))))))$)$))))))))))))))g$",
"))))))))))$$$$$)))))))))))i$",
")))))))))))$$j$$))))))))))!$",
"))))))))))))$$k$$)))))h))|l$",
")))))))))))))))$$))))$$m)}$$",
")))))))))))))))))))))$$$)_$$",
"))))))))))))))))))))$n$$o$$$"};
