/* XPM */
static char * compass28_xpm[] = {
"28 28 105 2",
"  	c None",
". 	c #000000",
"+ 	c #040404",
"@ 	c #111111",
"# 	c #070707",
"$ 	c #3B3B3B",
"% 	c #080808",
"& 	c #686868",
"* 	c #959595",
"= 	c #C3C3C3",
"- 	c #181818",
"; 	c #535353",
"> 	c #0C0C0C",
", 	c #EAD19B",
"' 	c #545454",
") 	c #202020",
"! 	c #2C2C2C",
"~ 	c #AFAFAF",
"{ 	c #E7A10C",
"] 	c #E9E7E1",
"^ 	c #030303",
"/ 	c #E8B444",
"( 	c #BDBDBD",
"_ 	c #656565",
": 	c #B2B2B2",
"< 	c #E5E5E5",
"[ 	c #7F7F7F",
"} 	c #010101",
"| 	c #C4C4C4",
"1 	c #3E3E3E",
"2 	c #EAC474",
"3 	c #909090",
"4 	c #313131",
"5 	c #B3B3B3",
"6 	c #838383",
"7 	c #A0A0A0",
"8 	c #090909",
"9 	c #BCBCBC",
"0 	c #858585",
"a 	c #464646",
"b 	c #C5C5C5",
"c 	c #5D5D5D",
"d 	c #626262",
"e 	c #0B0B0B",
"f 	c #EAE2D2",
"g 	c #565656",
"h 	c #0F0F0F",
"i 	c #AAAAAA",
"j 	c #CECECE",
"k 	c #0A0A0A",
"l 	c #787878",
"m 	c #7E7E7E",
"n 	c #232323",
"o 	c #343434",
"p 	c #515151",
"q 	c #E4E4E4",
"r 	c #727272",
"s 	c #9D9D9D",
"t 	c #CCCCCC",
"u 	c #0D0D0D",
"v 	c #9A9A9A",
"w 	c #060606",
"x 	c #595959",
"y 	c #878787",
"z 	c #939393",
"A 	c #050505",
"B 	c #161616",
"C 	c #171717",
"D 	c #141414",
"E 	c #101010",
"F 	c #131313",
"G 	c #757575",
"H 	c #868686",
"I 	c #C8C8C8",
"J 	c #9B9B9B",
"K 	c #6D6D6D",
"L 	c #424242",
"M 	c #646464",
"N 	c #818181",
"O 	c #EDBA4C",
"P 	c #C2C2C2",
"Q 	c #969696",
"R 	c #D7D7D7",
"S 	c #717171",
"T 	c #1F1F1F",
"U 	c #888888",
"V 	c #3D3D3D",
"W 	c #707070",
"X 	c #D1D1D1",
"Y 	c #6C6C6C",
"Z 	c #DADADA",
"` 	c #A3A3A3",
" .	c #585858",
"..	c #222222",
"+.	c #777777",
"@.	c #191919",
"#.	c #949494",
"$.	c #9E9E9E",
"%.	c #D3D3D3",
"&.	c #C7C7C7",
"*.	c #6F6F6F",
"=.	c #BABABA",
"-.	c #8D8D8D",
";.	c #5E5E5E",
">.	c #323232",
". . . . . . . . . . . . . + @ . . . . . . . . . . . . . ",
". . . . . . . . . . . . . # $ . . . . . . . . . . . . . ",
". . . . . . . . . . . . . % & . . . . . . . . . . . . . ",
". . . . . . . . . . . . . # * . . . . . . . . . . . . . ",
". . . . . . . . . . . . . # = . . . . . . . . . . . . . ",
". . . . . . . . . . . - ; > , ' ) . . . . . . . . . . . ",
". . . . . . . . . ! ~ { ] ^ { / { ( $ . . . . . . . . . ",
". . . . . . . . _ { { { : . { < { { { [ } . . . . . . . ",
". . . . . . . _ { { | 1 % . 2 3 4 5 { { 6 . . . . . . . ",
". . . . . . ! { { 7 8 . # . 2 9 . ^ 0 { { a . . . . . . ",
". . . . . . ~ { b % c d e . 2 f 8 g h i { j . . . . . . ",
". . . . . - { { 1 . # [ k . 2 { l m . n { { o . . . . . ",
". . . . . p { q r s t { 0 . { 7 e u % % v < r . . . . . ",
"w ! x y 5 < { { { { { { { 0 z A . . . . . } e # % # # + ",
"h B B C B B C D E E E @ F G H { / 2 2 2 { { { I J K L B ",
". . . . . ; t z % w # } M { F N O / P Q R / S . . . . . ",
". . . . . T { { 4 . ; U { { @ . N k . - { O V . . . . . ",
". . . . . . ( { 5 ^ W e X { E w W Y ^ * O Z A . . . . . ",
". . . . . . $ { { y % . ` { E # . k Y { O  .. . . . . . ",
". . . . . . . [ { { i ..+.{ E % @.#.{ O $.. . . . . . . ",
". . . . . . . } 6 { { { %.{ D m { O O $.# . . . . . . . ",
". . . . . . . . . a j { { { B &.O Z  .. . . . . . . . . ",
". . . . . . . . . . . o *.] B *.V A . . . . . . . . . . ",
". . . . . . . . . . . . . =.B . . . . . . . . . . . . . ",
". . . . . . . . . . . . . -.B . . . . . . . . . . . . . ",
". . . . . . . . . . . . . ;.B . . . . . . . . . . . . . ",
". . . . . . . . . . . . . >.B . . . . . . . . . . . . . ",
". . . . . . . . . . . . . % @ . . . . . . . . . . . . . "};
