/* XPM */
static char * dalek28_xpm[] = {
"28 28 358 2",
"  	c None",
". 	c #000000",
"+ 	c #323232",
"@ 	c #5D5D5D",
"# 	c #1C323C",
"$ 	c #2F2F2F",
"% 	c #464646",
"& 	c #A9A9A9",
"* 	c #C9C9C9",
"= 	c #DCDCDC",
"- 	c #949494",
"; 	c #6A6A6A",
"> 	c #1F1F1F",
", 	c #363636",
"' 	c #3E5B68",
") 	c #3E3E3D",
"! 	c #646464",
"~ 	c #989898",
"{ 	c #A8A8A8",
"] 	c #B7B7B7",
"^ 	c #DBDBDB",
"/ 	c #C5C5C5",
"( 	c #E5E5E5",
"_ 	c #D4D4D4",
": 	c #A6A6A6",
"< 	c #333333",
"[ 	c #AFAFAF",
"} 	c #B1B2B2",
"| 	c #C6C6C6",
"1 	c #EEEEEE",
"2 	c #FBFBFB",
"3 	c #E9E9E9",
"4 	c #D7D7D7",
"5 	c #C2C2C2",
"6 	c #8E8F8F",
"7 	c #707070",
"8 	c #4E4E4E",
"9 	c #9D9D9D",
"0 	c #575757",
"a 	c #6C6C6C",
"b 	c #6F6F6F",
"c 	c #ACACAC",
"d 	c #565656",
"e 	c #515151",
"f 	c #545454",
"g 	c #686868",
"h 	c #737373",
"i 	c #9C9C9C",
"j 	c #767676",
"k 	c #7C7C7C",
"l 	c #878787",
"m 	c #A5A6A6",
"n 	c #898989",
"o 	c #848484",
"p 	c #979798",
"q 	c #232323",
"r 	c #373737",
"s 	c #838383",
"t 	c #6B6B6B",
"u 	c #777777",
"v 	c #6E6E6E",
"w 	c #585959",
"x 	c #595A5A",
"y 	c #88969B",
"z 	c #404C50",
"A 	c #55595A",
"B 	c #99999A",
"C 	c #575B5D",
"D 	c #5B5F61",
"E 	c #51595C",
"F 	c #7F878A",
"G 	c #404B4F",
"H 	c #3F4D53",
"I 	c #35444A",
"J 	c #181E21",
"K 	c #B5D1DB",
"L 	c #B6CDD6",
"M 	c #C4D1D7",
"N 	c #D8DBDD",
"O 	c #E2E2E1",
"P 	c #D2DBDE",
"Q 	c #C7D2D7",
"R 	c #B6CAD2",
"S 	c #A6BFC9",
"T 	c #9AB8C4",
"U 	c #94B4C2",
"V 	c #A7CCDB",
"W 	c #B0AFAF",
"X 	c #A7A4A3",
"Y 	c #B9B8B8",
"Z 	c #D0CFCF",
"` 	c #DFDFDF",
" .	c #F2F2F2",
"..	c #FFFFFF",
"+.	c #FFFEFD",
"@.	c #EBE9E8",
"#.	c #D0CECD",
"$.	c #656565",
"%.	c #585858",
"&.	c #D4E7EF",
"*.	c #C1D2DA",
"=.	c #A9B4B9",
"-.	c #B1B5B6",
";.	c #BCBDBE",
">.	c #C3C2C2",
",.	c #CECECE",
"'.	c #CACCCE",
").	c #C5CBCD",
"!.	c #C2C7C9",
"~.	c #BBC3C5",
"{.	c #ADB9BF",
"].	c #A5AEB3",
"^.	c #232221",
"/.	c #8A8A8B",
"(.	c #4A4A4A",
"_.	c #5A5A5A",
":.	c #4C4C4C",
"<.	c #545556",
"[.	c #575858",
"}.	c #565757",
"|.	c #5E5F5F",
"1.	c #959696",
"2.	c #E1E4E4",
"3.	c #C2D5DD",
"4.	c #9EABB1",
"5.	c #CFD9DD",
"6.	c #DADFE1",
"7.	c #DCE2E5",
"8.	c #E6E7E7",
"9.	c #D6DFE2",
"0.	c #D0D9DD",
"a.	c #BECFD5",
"b.	c #BACED5",
"c.	c #ABC3CD",
"d.	c #A8C0C9",
"e.	c #516269",
"f.	c #010101",
"g.	c #696969",
"h.	c #606161",
"i.	c #262626",
"j.	c #201F1F",
"k.	c #272D30",
"l.	c #E1F1F8",
"m.	c #A7C3CE",
"n.	c #CACFD1",
"o.	c #CFD6D9",
"p.	c #DADDDE",
"q.	c #F0F0F0",
"r.	c #EAEDEE",
"s.	c #E3EBEE",
"t.	c #E2E8EB",
"u.	c #DCE4E6",
"v.	c #D4DFE4",
"w.	c #C0CED3",
"x.	c #939A9C",
"y.	c #525151",
"z.	c #A09F9F",
"A.	c #A9A9A8",
"B.	c #BCBBBA",
"C.	c #CACACA",
"D.	c #E3E3E3",
"E.	c #E0E0E0",
"F.	c #5D5E5F",
"G.	c #D4D3D3",
"H.	c #D6D2D0",
"I.	c #D1D1D1",
"J.	c #D3D5D6",
"K.	c #D6D3D2",
"L.	c #D2CFCD",
"M.	c #EEEAE9",
"N.	c #ECEAE9",
"O.	c #E7E7E7",
"P.	c #ECEBEB",
"Q.	c #A3A1A0",
"R.	c #242E32",
"S.	c #9CD8F4",
"T.	c #DCE4E9",
"U.	c #A1D7EE",
"V.	c #BFCED4",
"W.	c #C8DAE2",
"X.	c #BEE2F2",
"Y.	c #97C7DD",
"Z.	c #D8EDF6",
"`.	c #B3DCEE",
" +	c #78C1E2",
".+	c #E2F0F6",
"++	c #BADEEF",
"@+	c #A7D7EC",
"#+	c #E4E5E5",
"$+	c #B7DBEB",
"%+	c #8AC6E0",
"&+	c #5297B5",
"*+	c #284754",
"=+	c #4094B8",
"-+	c #B9CAD2",
";+	c #1B89B9",
">+	c #D7D0CC",
",+	c #C1D7E0",
"'+	c #30A3D6",
")+	c #6A91A2",
"!+	c #CEE8F4",
"~+	c #2B9ACB",
"{+	c #3681A1",
"]+	c #D6E9F2",
"^+	c #30A4D7",
"/+	c #6A90A2",
"(+	c #F3F0EE",
"_+	c #5AB0D7",
":+	c #418CAD",
"<+	c #166A90",
"[+	c #A5A2A1",
"}+	c #E4E1DF",
"|+	c #D8D5D4",
"1+	c #E8DFDC",
"2+	c #E5E6E6",
"3+	c #DFDEDE",
"4+	c #F1E4DE",
"5+	c #FAF8F7",
"6+	c #FFFBF6",
"7+	c #FDFBFA",
"8+	c #F5F5F6",
"9+	c #FFF5F1",
"0+	c #FFFFFD",
"a+	c #EDEDED",
"b+	c #ECE6E3",
"c+	c #FFF8F5",
"d+	c #5D747E",
"e+	c #86BFD8",
"f+	c #C7D9E1",
"g+	c #AFDDF0",
"h+	c #96C1D4",
"i+	c #D7D5D4",
"j+	c #B1D7E7",
"k+	c #78C3E5",
"l+	c #BCDCEB",
"m+	c #ACD9ED",
"n+	c #C6DEE8",
"o+	c #F1EFEE",
"p+	c #C0E0EE",
"q+	c #7EC4E3",
"r+	c #F2EDEB",
"s+	c #B5D6E5",
"t+	c #8ECCE8",
"u+	c #A5DEF8",
"v+	c #0D394D",
"w+	c #367E9D",
"x+	c #ADC4CF",
"y+	c #1D85B3",
"z+	c #92B1BF",
"A+	c #DDDBDA",
"B+	c #52A8CE",
"C+	c #207DA5",
"D+	c #9ABDCD",
"E+	c #1F8BBB",
"F+	c #A7C6D4",
"G+	c #F6F3F1",
"H+	c #4EA3C8",
"I+	c #3A8EB4",
"J+	c #E6E4E3",
"K+	c #BBCED7",
"L+	c #2881A8",
"M+	c #6C95A8",
"N+	c #B6B2B0",
"O+	c #D5D4D3",
"P+	c #CCCAC8",
"Q+	c #E1D7D2",
"R+	c #D4CECB",
"S+	c #DBD4D1",
"T+	c #EDEAE9",
"U+	c #FDF1EC",
"V+	c #F5EFED",
"W+	c #F4EEEB",
"X+	c #575453",
"Y+	c #566C76",
"Z+	c #7EBDD8",
"`+	c #C6C0BD",
" @	c #B3DFF3",
".@	c #89BBD1",
"+@	c #AEC1C9",
"@@	c #C0E5F4",
"#@	c #84B1C5",
"$@	c #76C2E4",
"%@	c #B6D5E3",
"&@	c #AFDBEF",
"*@	c #B9D3DE",
"=@	c #BBD4DF",
"-@	c #AFDDF1",
";@	c #A0D0E4",
">@	c #245A71",
",@	c #91AAB6",
"'@	c #5D8394",
")@	c #D0CBC9",
"!@	c #3C87A8",
"~@	c #8DAAB7",
"{@	c #9BB7C3",
"]@	c #1E86B3",
"^@	c #7C98A4",
"/@	c #4EA0C4",
"(@	c #3789AD",
"_@	c #AEC5CF",
":@	c #1375A0",
"<@	c #9CB9C6",
"[@	c #E0DFDF",
"}@	c #3781A3",
"|@	c #7E95A0",
"1@	c #001E2E",
"2@	c #1B1A19",
"3@	c #8C8A89",
"4@	c #E3DDDA",
"5@	c #E3DEDC",
"6@	c #EAE2DE",
"7@	c #DCD9D8",
"8@	c #C3BDBB",
"9@	c #B0AEAE",
"0@	c #74A5BB",
"a@	c #72B6D4",
"b@	c #B2D4E4",
"c@	c #72BAD9",
"d@	c #9AC9DE",
"e@	c #98D3EE",
"f@	c #8EA8B4",
"g@	c #BCE2F3",
"h@	c #68B6D9",
"i@	c #BFE3F4",
"j@	c #67B6DA",
"k@	c #DBD2CE",
"l@	c #9AD4EE",
"m@	c #73B2CD",
"n@	c #96D9F7",
"o@	c #6E8690",
"p@	c #657B85",
"q@	c #C2BFBE",
"r@	c #4592B3",
"s@	c #81949D",
"t@	c #408EB0",
"u@	c #2F7DA0",
"v@	c #297FA5",
"w@	c #618697",
"x@	c #ADC9D5",
"y@	c #217DA6",
"z@	c #5D8293",
"A@	c #CECBC9",
"B@	c #4892B3",
"C@	c #356B83",
"D@	c #4F99BA",
"E@	c #434343",
"F@	c #868686",
"G@	c #A1A2A2",
"H@	c #C6C5C4",
"I@	c #DEDEDE",
"J@	c #E5E0DE",
"K@	c #D9D9D9",
"L@	c #E6E1DE",
"M@	c #D0D0D0",
"N@	c #B5B2B1",
"O@	c #A3A2A2",
"P@	c #353535",
"Q@	c #030303",
". . . . . . . . + @ # . . . . $ % & * = - ; . . . . . . ",
". . . . . . . . > , ' ) . . ! ~ { ] ^ / ( _ : < . . . . ",
". . . . . . . . . . . . . . [ } | = 1 2 3 4 5 6 . . . . ",
". . . . . . . . . . . . . . 7 8 9 0 a b c d e f . . . . ",
". . . . . . . . . . . . . < g h i j k l m n o p q . . . ",
". . . . . . . . . . . . . r . . s . . . t . . u . . . . ",
". . . . . . . . . . . . . v . . ; . . . w . . x . . . . ",
". . . . . . . . . . . . . y z A B C D E F G H I J . . . ",
". . . . . . . . . . . . . K L M N O P Q R S T U V . . . ",
". . . . . . . . . . . . W X Y Z `  .........+.@.#.$.. . ",
"%.. . . . . . . . . . . &.*.=.-.;.>.,.'.).!.~.{.].^.. . ",
"/.(.0 _.:.f <.[.@ }.|.1.2.3.4.5.6.7.8.9.0.a.b.c.d.e.. . ",
"f.. . . . . g.h.i.@ j.k.l.m.n.o.p.3 q.r.s.t.u.v.w.x.. . ",
". . . . . . . . . . y.z.A.B.C._ D. .............E.4 . . ",
". . . . . . . . . . F.G.H.I.J.K.L...M.N.O.M.P.....Q.. . ",
". . . . . . . . . R.S.T.U.V.W.X.Y.Z.`. +.+++@+#+$+%+&+. ",
". . . . . . . . . *+=+-+;+>+,+'+)+!+~+{+]+^+/+(+_+:+<+. ",
". . . . . . . . . [+}+|+1+2+3+4+..5+6+7+8+9+0+a+b+c+. . ",
". . . . . . . . d+e+f+g+h+i+j+k+..l+m+n+o+p+q+r+s+t+u+. ",
". . . . . . . . v+w+x+y+z+A+B+C+..D+E+F+G+H+I+J+K+L+M+. ",
". . . . . . . . N+O+P+Q+....R+S+..T+U+....V+W+O.8...X+. ",
". . . . . . . Y+Z+`+ @.@..+@@@#@..$+$@....%@&@*@=@-@;@>@",
". . . . . . . ,@'@)@!@~@..{@]@^@../@(@...._@:@<@[@}@|@1@",
". . . . . . 2@3@..........Y ......4@5@......6@7@..8@9@. ",
". . . . . . 0@a@..b@c@....d@e@f@..g@h@......i@j@k@l@m@n@",
". . . . . . o@p@q@r@s@....t@u@....v@w@....x@y@z@A@B@C@D@",
". . . . . E@F@G@..H@..C.c ....[ I@J@3+K@4 K@L@3+M@N@O@A+",
". . . . $ P@Q@. . . . . . . . . . . . . . . . . . . . . "};
